<svg clip-rule="evenodd" fill-rule="evenodd" height="1.707in" image-rendering="optimizeQuality" shape-rendering="geometricPrecision" text-rendering="geometricPrecision" viewBox="0 0 1707 1707" width="1.707in" xmlns="http://www.w3.org/2000/svg"><g id="Layer_x0020_1"><path d="m642 356c-11 0-20-9-20-20v-77c0-26 40-26 40 0v77c0 11-9 20-20 20z" fill="#5d6fa9"/><path d="m811 1568h-339c-11 0-20-9-20-20v-132c0-11 9-20 20-20h339c11 0 20 9 20 20v132c0 11-9 20-20 20z" fill="#e9ecef"/><g fill="#5d6fa9"><path d="m1093 715h-69c-11 0-20-9-20-20v-271c0-11 9-20 20-20h69c50 0 90 40 90 89v132c0 50-40 90-90 90z"/><path d="m259 715h-69c-49 0-89-41-89-90v-132c0-49 40-89 89-89h69c11 0 20 9 20 20v271c0 11-9 20-20 20z"/><path d="m811 935h-339c-11 0-20-10-20-20v-132c0-11 9-20 20-20h339c11 0 20 9 20 20v132c0 10-9 20-20 20z"/></g><path d="m975 803h-666c-39 0-70-31-70-69v-349c0-38 31-69 70-69h666c38 0 69 31 69 69v348c0 39-31 70-69 70z" fill="#e9ecef"/><path d="m643 279c-77 0-139-63-139-140s62-139 139-139 139 63 139 140-62 139-139 139z" fill="#fa3c48"/><g fill="#5d6fa9"><path d="m450 582c-111 0-111-168 0-168s111 168 0 168z"/><path d="m834 582c-111 0-111-168 0-168 110 0 110 168 0 168z"/><path d="m642 722c-71 0-178-56-146-89 8-8 21-8 29 0 64 65 169 65 234 0 18-18 47 10 28 28-40 40-93 61-145 61z"/></g><path d="m1029 1436h-777c-45 0-82-37-82-82v-378c0-45 37-81 82-81h779c45 0 82 36 82 81v127c0 11-8 18-16 19 0 21 7 211 4 215l-55 69c6 12 1 30-17 30z" fill="#e9ecef"/><path d="m918 1436h-553v-271c0-31 26-56 57-56h440c30 0 56 25 56 56z" fill="#5d6fa9"/><path d="m1312 1569h-106c-24 0-44-20-44-44v-65c-1-1-3-1-4-2-35 20-88 64-116 16l-53-92c-28-48 37-72 72-92v-5l-56-33c-21-12-28-39-16-60l53-91c27-49 81-4 116 16 1-1 3-2 4-3v-64c0-25 20-44 44-44h106c24 0 44 19 44 44v64c1 1 3 2 4 3 35-20 88-64 116-16l53 91c28 49-37 72-72 93v5c35 20 100 44 72 93l-53 91c-27 48-81 4-116-16-1 0-3 1-4 2v65c0 24-20 44-44 44z" fill="#95afd1"/><path d="m1259 1422c-74 0-134-61-134-135s60-134 134-134 134 60 134 134-60 135-134 135z" fill="#86a7cd"/><path d="m1259 1195c-51 0-92 41-92 92s41 93 92 93 93-42 93-93-42-92-93-92z" fill="#fff"/><path d="m1601 1707h-1496c-27 0-49-22-49-49v-81c0-27 22-49 49-49h1496c28 0 49 22 49 49v81c0 27-21 49-49 49z" fill="#353f47"/></g></svg>