<svg enable-background="new 0 0 512 512" viewBox="0 0 512 512" xmlns="http://www.w3.org/2000/svg"><g id="guides"/><g id="fill"><g><g fill="#fff"><path d="m293.939 59.619c-.233-.045-.465-.093-.699-.137.234.044.466.092.699.137z"/><path d="m298.404 60.53c-1.482-.32-2.97-.624-4.465-.911 1.494.288 2.983.59 4.465.911z"/><path d="m293.24 59.482c-1.683-.317-3.372-.619-5.07-.894 1.697.276 3.387.575 5.07.894z"/></g><g><path d="m423.081 146.058-365.521 134.857c12.268 98.696 96.423 175.085 198.44 175.085 110.457 0 200-89.543 200-200 0-40.617-12.114-78.398-32.919-109.942z" fill="#fff"/></g><path d="m57.55 280.919.01-.004c-.021-.166-.044-.33-.065-.496.021.166.035.334.055.5z" fill="#fff"/><path d="m298.94 60.648c-.179-.039-.357-.079-.537-.118.18.039.358.079.537.118z" fill="#fff"/><path d="m57.496 280.419c-.219-1.794-.418-3.593-.59-5.401.17 1.808.371 3.607.59 5.401z" fill="#fff"/></g><g fill="#def4fc"><path d="m210.401 141c1.366-7.255 2.87-14.138 4.511-20.583 4.707-18.491 10.392-32.826 16.886-42.784-7.946 1.073-15.727 2.667-23.312 4.745-23.578 11.799-43.881 32.216-58.974 58.623h60.889z"/><path d="m220.58 141h70.839c-1.231-6.361-2.572-12.418-4.022-18.117-5.788-22.739-13.028-38.787-20.755-46.56-3.522-.206-7.069-.323-10.642-.323s-7.12.117-10.642.323c-7.727 7.773-14.967 23.821-20.755 46.56-1.451 5.7-2.792 11.756-4.023 18.117z"/><path d="m151.975 118.709c5.522-7.592 11.461-14.476 17.747-20.645-19.956 10.945-37.622 25.562-52.086 42.936h20.43c4.186-7.846 8.825-15.301 13.909-22.291z"/><path d="m133.081 151h-23.193c-20.403 28.311-32.794 62.759-33.815 100h34.973c.645-36.148 8.296-70.485 22.035-100z"/><path d="m301.6 141h60.889c-15.093-26.407-35.395-46.824-58.974-58.623-7.585-2.078-15.366-3.672-23.312-4.745 6.494 9.958 12.179 24.293 16.886 42.784 1.641 6.446 3.145 13.329 4.511 20.584z"/><path d="m144.195 151c-14.057 28.386-22.458 62.65-23.147 100h17.71l62.738-23.114c.98-27.851 3.412-53.982 7.152-76.886z"/><path d="m76.073 261c.118 4.305.395 8.57.811 12.796l34.168-12.588c-.001-.069-.005-.138-.006-.208z"/><path d="m303.352 151c1.92 11.758 3.49 24.375 4.703 37.627l65.761-24.228c-1.873-4.591-3.867-9.072-6.011-13.4h-64.453z"/><path d="m378.919 151c1.513 3.251 2.94 6.57 4.304 9.934l20.558-7.574c-.551-.791-1.105-1.579-1.669-2.36z"/><path d="m218.776 151c-3.637 21.745-6.063 46.584-7.14 73.15l86.711-31.946c-1.272-14.615-2.988-28.444-5.123-41.204z"/><path d="m373.935 141h20.429c-14.464-17.373-32.13-31.99-52.085-42.935 6.286 6.168 12.225 13.052 17.746 20.644 5.084 6.99 9.724 14.445 13.91 22.291z"/></g><path d="m435.927 251h-34.973c-.477-26.722-4.793-52.447-12.556-75.973l-9.393 3.461c7.25 22.054 11.468 46.533 11.948 72.512h-79.968c-.098-16.117-.671-31.813-1.689-46.83l-9.786 3.606c.88 13.898 1.384 28.371 1.475 43.224h-89.968c.022-3.583.075-7.137.143-10.674l-10.071 3.71c-.034 2.312-.059 4.633-.073 6.964h-18.829l-27.143 10h45.972c.222 36.499 2.873 70.854 7.633 100h-64.453c-12.495-25.231-20.505-55.112-22.619-87.67l-9.766 3.598c2.301 30.28 9.567 58.928 21.272 84.072h-23.193c-15.178-21.062-25.918-45.521-30.846-71.999l-19.019 7.007c18.583 91.175 99.392 159.992 195.975 159.992 110.28 0 200-89.72 200-200 0-35.044-9.071-68.006-24.972-96.678l-19.015 7.005c14.465 25.064 23.071 53.914 23.914 84.673zm-124.943 10h79.968c-.689 37.35-9.09 71.614-23.147 100h-64.453c4.759-29.146 7.411-63.501 7.632-100zm-10 0c-.225 36.665-2.921 71.071-7.76 100h-74.449c-4.839-28.93-7.535-63.335-7.76-100zm-183.348 110h20.429c4.186 7.846 8.826 15.301 13.91 22.291 5.522 7.592 11.461 14.476 17.748 20.645-19.956-10.946-37.622-25.562-52.087-42.936zm90.85 58.623c-23.578-11.799-43.881-32.216-58.974-58.623h60.889c1.366 7.256 2.87 14.138 4.511 20.584 4.707 18.491 10.392 32.825 16.886 42.784-7.946-1.073-15.728-2.667-23.312-4.745zm47.514 6.377c-3.573 0-7.12-.117-10.642-.323-7.727-7.773-14.967-23.821-20.755-46.56-1.451-5.699-2.791-11.756-4.022-18.117h70.84c-1.231 6.361-2.572 12.418-4.022 18.117-5.788 22.739-13.027 38.786-20.755 46.56-3.524.206-7.07.323-10.644.323zm47.515-6.377c-7.585 2.078-15.366 3.672-23.312 4.745 6.494-9.958 12.179-24.292 16.886-42.783 1.641-6.446 3.145-13.328 4.511-20.584h60.889c-15.094 26.406-35.396 46.823-58.974 58.622zm38.764-15.688c6.286-6.168 12.225-13.052 17.747-20.644 5.084-6.99 9.724-14.445 13.909-22.291h20.429c-14.465 17.373-32.13 31.99-52.085 42.935zm59.833-52.935h-23.193c13.74-29.515 21.39-63.852 22.035-100h34.973c-1.021 37.241-13.412 71.689-33.815 100z" fill="#87b6dd"/><path d="m76.073 261h34.973c.001.069.005.138.006.208l27.706-10.208h-17.71c.689-37.35 9.09-71.614 23.147-100h64.453c-3.74 22.905-6.172 49.035-7.152 76.886l10.141-3.736c1.076-26.566 3.502-51.405 7.14-73.15h74.448c2.135 12.76 3.851 26.589 5.123 41.204l9.708-3.577c-1.213-13.252-2.783-25.869-4.703-37.627h64.453c2.143 4.328 4.138 8.808 6.011 13.4l9.407-3.466c-1.364-3.364-2.791-6.683-4.304-9.934h23.193c.563.781 1.118 1.569 1.669 2.36l19.324-7.119c-35.798-54.316-97.331-90.241-167.106-90.241-110.28 0-200 89.72-200 200 0 8.437.531 16.753 1.55 24.919l19.334-7.123c-.417-4.226-.693-8.491-.811-12.796zm318.291-120h-20.429c-4.186-7.846-8.825-15.301-13.909-22.291-5.522-7.592-11.46-14.475-17.746-20.644 19.954 10.945 37.619 25.562 52.084 42.935zm-90.849-58.623c23.578 11.799 43.881 32.216 58.974 58.623h-60.889c-1.366-7.255-2.87-14.138-4.511-20.583-4.707-18.491-10.392-32.826-16.886-42.784 7.945 1.072 15.727 2.666 23.312 4.744zm-47.515-6.377c3.573 0 7.12.117 10.642.323 7.727 7.773 14.967 23.821 20.755 46.56 1.451 5.699 2.791 11.756 4.022 18.117h-70.839c1.231-6.361 2.572-12.417 4.022-18.117 5.788-22.739 13.028-38.787 20.755-46.56 3.523-.206 7.07-.323 10.643-.323zm-47.514 6.377c7.585-2.078 15.366-3.672 23.312-4.745-6.494 9.958-12.179 24.293-16.886 42.784-1.641 6.446-3.145 13.328-4.511 20.583h-60.889c15.093-26.406 35.395-46.823 58.974-58.622zm-38.764 15.687c-6.286 6.168-12.225 13.052-17.747 20.645-5.084 6.99-9.724 14.445-13.909 22.291h-20.43c14.465-17.374 32.131-31.99 52.086-42.936zm-59.834 52.936h23.193c-13.74 29.515-21.39 63.852-22.036 100h-34.972c1.021-37.241 13.412-71.689 33.815-100z" fill="#00476b"/><g><path d="m451.772 114.787c-11.716-11.716-30.711-11.716-42.426 0l-98.995 98.995 42.426 42.426 98.995-98.995c11.715-11.716 11.715-30.71 0-42.426z" fill="#87b6dd"/><path d="m329.943 201.083h11.066v60h-11.066z" fill="#c8dff5" transform="matrix(.707 -.707 .707 .707 -65.141 304.9)"/><g><path d="m310.35 213.782-134.35 49.497 127.279 127.279 49.498-134.35z" fill="#def4fc"/></g><g fill="#fff"><path d="m176 263.279 127.279 127.279 10.037-27.242-110.074-110.074z"/><g><path d="m195.758 256h156.811l-10-10h-119.668z"/><path d="m178.721 266 10 10h156.764l3.684-10z"/><path d="m334.432 306h-115.711l10 10h102.027z"/></g></g></g></g><g id="outline"><g><path d="m352.777 256.208 98.995-98.995c11.716-11.716 11.716-30.711 0-42.426s-30.711-11.716-42.426 0l-98.995 98.995-134.351 49.497 127.279 127.279z" fill="none" stroke="#00476b" stroke-miterlimit="10" stroke-width="20"/><path d="m310.35 213.782 42.427 42.426" style="fill:none;stroke:#00476b;stroke-linecap:round;stroke-linejoin:round;stroke-miterlimit:10;stroke-width:10"/><g fill="#00476b"><circle cx="419.952" cy="146.607" r="5"/><circle cx="356.312" cy="210.246" r="5"/></g></g></g></svg>