<?xml version="1.0" encoding="iso-8859-1"?>
<!-- Generator: Adobe Illustrator 19.0.0, SVG Export Plug-In . SVG Version: 6.00 Build 0)  -->
<svg version="1.1" id="Capa_1" xmlns="http://www.w3.org/2000/svg" xmlns:xlink="http://www.w3.org/1999/xlink" x="0px" y="0px"
	 viewBox="0 0 512.001 512.001" style="enable-background:new 0 0 512.001 512.001;" xml:space="preserve">
<path style="fill:#006EFF;" d="M256.051,61.772L145.959,16.168c-3.674-1.52-7.805-1.521-11.481,0
	c-3.675,1.523-6.596,4.443-8.117,8.119L80.76,134.379c-1.522,3.676-1.522,7.805,0,11.48c1.521,3.676,4.442,6.596,8.117,8.117
	l110.092,45.6c1.878,0.777,3.822,1.146,5.734,1.146c5.887,0,11.472-3.488,13.864-9.264L264.169,81.37
	C267.34,73.717,263.705,64.944,256.051,61.772z"/>
<path style="fill:#0050C3;" d="M256.051,61.772l-55.047-22.801l-57.082,137.807l55.047,22.799c1.878,0.777,3.822,1.146,5.734,1.146
	c5.887,0,11.472-3.488,13.864-9.264l45.602-110.088C267.34,73.717,263.705,64.944,256.051,61.772z"/>
<path style="fill:#DEECF1;" d="M210.449,171.86l-110.092-45.6c-6.078-2.516-13.086-0.779-17.285,4.283L3.455,226.539
	c-3.155,3.805-4.234,8.918-2.885,13.672l42.436,149.457c1.253,4.412,4.453,8.008,8.689,9.762c1.844,0.764,3.795,1.143,5.74,1.143
	c2.526,0,5.045-0.639,7.307-1.9l135.688-75.674c4.316-2.406,7.17-6.785,7.629-11.707l11.586-124.18
	C220.256,180.561,216.527,174.377,210.449,171.86z"/>
<path style="fill:#A2D8F4;" d="M210.449,171.86l-55.047-22.799L51.695,399.43c1.844,0.764,3.795,1.143,5.74,1.143
	c2.526,0,5.045-0.639,7.307-1.9l135.688-75.674c4.316-2.406,7.17-6.785,7.629-11.707l11.586-124.18
	C220.256,180.561,216.527,174.377,210.449,171.86z"/>
<g>
	<path style="fill:#006EFF;" d="M57.43,400.577c-1.912,0-3.856-0.369-5.734-1.147c-7.653-3.17-11.287-11.945-8.117-19.598
		L98.915,246.24c3.17-7.654,11.944-11.291,19.598-8.119s11.289,11.945,8.119,19.6L71.295,391.313
		C68.902,397.088,63.316,400.577,57.43,400.577z"/>
	<path style="fill:#006EFF;" d="M336.335,496.973H15c-8.283,0-15-6.717-15-15c0-8.285,6.717-15,15-15h321.335
		c18.306,0,33.199-14.895,33.199-33.201c0-18.307-14.894-33.199-33.199-33.199c-34.849,0-63.201-28.352-63.201-63.199
		c0-34.85,28.353-63.201,63.201-63.201h160.666c8.284,0,15,6.715,15,15c0,8.283-6.716,15-15,15H336.335
		c-18.308,0-33.201,14.893-33.201,33.201c0,18.305,14.894,33.199,33.201,33.199c34.849,0,63.199,28.352,63.199,63.199
		C399.534,468.621,371.184,496.973,336.335,496.973z"/>
</g>
<path style="fill:#0050C3;" d="M497.001,274.172H336.335c-34.849,0-63.201,28.352-63.201,63.201
	c0,34.848,28.353,63.199,63.201,63.199c18.306,0,33.199,14.892,33.199,33.199s-14.894,33.201-33.199,33.201H256v30h80.335
	c34.849,0,63.199-28.352,63.199-63.201c0-34.848-28.351-63.199-63.199-63.199c-18.308,0-33.201-14.895-33.201-33.199
	c0-18.309,14.894-33.201,33.201-33.201h160.666c8.284,0,15-6.717,15-15C512.001,280.887,505.285,274.172,497.001,274.172z"/>
<g>
</g>
<g>
</g>
<g>
</g>
<g>
</g>
<g>
</g>
<g>
</g>
<g>
</g>
<g>
</g>
<g>
</g>
<g>
</g>
<g>
</g>
<g>
</g>
<g>
</g>
<g>
</g>
<g>
</g>
</svg>
