<svg id="Capa_1" enable-background="new 0 0 512 512" height="512" viewBox="0 0 512 512" width="512" xmlns="http://www.w3.org/2000/svg"><g><g><path d="m439.113 193.132h-37.317c-4.142 0-7.5-3.358-7.5-7.5s3.358-7.5 7.5-7.5h34.21l10.924-10.924c1.406-1.407 3.314-2.197 5.303-2.197h28.442c4.142 0 7.5 3.358 7.5 7.5s-3.358 7.5-7.5 7.5h-25.335l-10.924 10.924c-1.406 1.407-3.313 2.197-5.303 2.197z" fill="#feb237"/></g><g><path d="m480.676 347.461h-28.442c-1.989 0-3.897-.79-5.303-2.197l-10.924-10.924h-34.211c-4.142 0-7.5-3.358-7.5-7.5s3.358-7.5 7.5-7.5h37.317c1.989 0 3.897.79 5.303 2.197l10.924 10.924h25.335c4.142 0 7.5 3.358 7.5 7.5s-3.357 7.5-7.499 7.5z" fill="#feb237"/></g><g><path d="m480.676 263.736h-78.88c-4.142 0-7.5-3.358-7.5-7.5s3.358-7.5 7.5-7.5h78.88c4.142 0 7.5 3.358 7.5 7.5s-3.358 7.5-7.5 7.5z" fill="#feb237"/></g><g><path d="m110.204 193.132h-37.317c-1.989 0-3.897-.79-5.303-2.197l-10.924-10.924h-25.336c-4.142 0-7.5-3.358-7.5-7.5s3.358-7.5 7.5-7.5h28.442c1.989 0 3.897.79 5.303 2.197l10.924 10.924h34.21c4.142 0 7.5 3.358 7.5 7.5s-3.357 7.5-7.499 7.5z" fill="#feb237"/></g><g><path d="m59.766 347.461h-28.442c-4.142 0-7.5-3.358-7.5-7.5s3.358-7.5 7.5-7.5h25.336l10.924-10.924c1.406-1.407 3.314-2.197 5.303-2.197h37.317c4.142 0 7.5 3.358 7.5 7.5s-3.358 7.5-7.5 7.5h-34.211l-10.924 10.924c-1.406 1.407-3.314 2.197-5.303 2.197z" fill="#feb237"/></g><g><path d="m110.204 263.736h-78.88c-4.142 0-7.5-3.358-7.5-7.5s3.358-7.5 7.5-7.5h78.88c4.142 0 7.5 3.358 7.5 7.5s-3.358 7.5-7.5 7.5z" fill="#feb237"/></g><g><g><path d="m344.455 132.168-36.423-72.376c-2.147-.979-4.492-1.516-6.897-1.516h-184.582c-9.196 0-16.65 7.455-16.65 16.65v362.146c0 9.196 7.455 16.65 16.65 16.65h278.894c9.196 0 16.65-7.455 16.65-16.65v-267.834c0-2.405-.537-4.749-1.516-6.897z" fill="#528fd8"/></g><g><path d="m344.455 132.168-36.423-72.376c-2.147-.979-4.492-1.516-6.897-1.516h-24.323v87.415c0 26.438 21.432 47.87 47.87 47.87h43.707c6.897 0 12.488 5.591 12.488 12.488v231.024c0 9.196-7.455 16.65-16.65 16.65h31.219c9.196 0 16.65-7.455 16.65-16.65v-267.835c0-2.405-.537-4.749-1.516-6.897z" fill="#0573ce"/></g><g><path d="m324.683 162.341h85.899c-.818-1.795-1.939-3.455-3.361-4.877l-94.311-94.311c-1.422-1.422-3.082-2.543-4.877-3.361v85.899c0 9.196 7.454 16.65 16.65 16.65z" fill="#b2caec"/></g><g><g><path d="m266.407 193.839v-51.985c0-5.639-3.042-10.84-7.957-13.605l-46.829-26.341c-4.752-2.673-10.554-2.673-15.306 0l-46.829 26.341c-4.915 2.765-7.957 7.966-7.957 13.605v51.985c0 5.639 3.042 10.84 7.957 13.605l46.829 26.341c4.752 2.673 10.554 2.673 15.306 0l46.829-26.341c4.915-2.765 7.957-7.966 7.957-13.605z" fill="#ffe177"/></g><g><path d="m170.667 181.151v-26.608c0-3.008 1.622-5.781 4.244-7.256l24.976-14.049c2.534-1.426 5.629-1.426 8.163 0l24.976 14.049c2.621 1.475 4.244 4.248 4.244 7.256v26.608c0 3.008-1.622 5.781-4.244 7.256l-24.976 14.049c-2.534 1.426-5.629 1.426-8.163 0l-24.976-14.049c-2.622-1.475-4.244-4.249-4.244-7.256z" fill="#fe9901"/></g></g></g><g><g><circle cx="491.187" cy="172.511" fill="#ffd15b" r="20.813"/></g><g><circle cx="491.187" cy="339.489" fill="#ffd15b" r="20.813"/></g><g><circle cx="491.187" cy="256.237" fill="#ffd15b" r="20.813"/></g></g><g><g><circle cx="20.813" cy="172.511" fill="#ffd15b" r="20.813"/></g><g><circle cx="20.813" cy="339.489" fill="#ffd15b" r="20.813"/></g><g><circle cx="20.813" cy="256.237" fill="#ffd15b" r="20.813"/></g></g><g><path d="m370.472 275.3h-228.944c-4.142 0-7.5-3.358-7.5-7.5s3.358-7.5 7.5-7.5h228.943c4.142 0 7.5 3.358 7.5 7.5s-3.357 7.5-7.499 7.5z" fill="#dff6fd"/></g><g><path d="m370.472 306.52h-228.944c-4.142 0-7.5-3.358-7.5-7.5s3.358-7.5 7.5-7.5h228.943c4.142 0 7.5 3.358 7.5 7.5s-3.357 7.5-7.499 7.5z" fill="#dff6fd"/></g><g><path d="m370.472 337.739h-228.944c-4.142 0-7.5-3.358-7.5-7.5s3.358-7.5 7.5-7.5h228.943c4.142 0 7.5 3.358 7.5 7.5s-3.357 7.5-7.499 7.5z" fill="#dff6fd"/></g><g><path d="m256 368.959h-114.472c-4.142 0-7.5-3.358-7.5-7.5s3.358-7.5 7.5-7.5h114.472c4.142 0 7.5 3.358 7.5 7.5s-3.358 7.5-7.5 7.5z" fill="#dff6fd"/></g><g><path d="m265.702 411.69c-1.045 0-2.106-.219-3.118-.683-3.766-1.725-5.421-6.175-3.697-9.941 5.384-11.76 13.794-21.948 24.321-29.464 2.254-1.609 9.114-6.511 16.957-4.638 3.762.896 7.129 3.236 9.607 6.597.494-.421 1.006-.83 1.541-1.222 6.241-4.592 14.009-5.705 20.277-2.902 3.712 1.659 6.739 4.851 8.326 8.706l28.87-6.665c4.033-.935 8.062 1.584 8.995 5.621.932 4.036-1.584 8.063-5.621 8.995l-37.815 8.73c-2.959.684-6.038-.486-7.798-2.96-1.671-2.349-1.841-5.435-.472-7.941-.106-.301-.398-.698-.607-.792-1.266-.565-3.48-.023-5.267 1.292-2.587 1.903-4.634 5.124-6.509 8.26-1.621 2.71-4.763 4.117-7.865 3.514-3.1-.601-5.491-3.079-5.981-6.199-.396-2.52-.77-4.899-1.612-6.638-.6-1.238-1.342-1.755-1.545-1.803-.049-.012-1.247-.255-4.763 2.255-8.396 5.995-15.104 14.121-19.398 23.5-1.263 2.752-3.983 4.378-6.826 4.378z" fill="#fe93d3"/></g></g></svg>